<svg width="17" height="16" viewBox="0 0 17 16" fill="none" xmlns="http://www.w3.org/2000/svg">
<path fill-rule="evenodd" clip-rule="evenodd" d="M0.172424 1.4524C0.172424 1.31032 0.228865 1.17406 0.329331 1.07359C0.429797 0.973128 0.566058 0.916687 0.708139 0.916687H2.31528C2.43478 0.91672 2.55084 0.956706 2.64499 1.03028C2.73915 1.10386 2.80601 1.20681 2.83492 1.32276L3.26885 3.05954H15.7081C15.7895 3.05957 15.8698 3.07813 15.9429 3.11382C16.0161 3.1495 16.0801 3.20138 16.1302 3.26552C16.1803 3.32965 16.2151 3.40435 16.232 3.48395C16.2489 3.56354 16.2475 3.64595 16.2278 3.7249L14.6206 10.1535C14.5917 10.2694 14.5249 10.3724 14.4307 10.4459C14.3365 10.5195 14.2205 10.5595 14.101 10.5595H4.45814C4.33864 10.5595 4.22258 10.5195 4.12843 10.4459C4.03427 10.3724 3.96741 10.2694 3.9385 10.1535L1.89742 1.98812H0.708139C0.566058 1.98812 0.429797 1.93167 0.329331 1.83121C0.228865 1.73074 0.172424 1.59448 0.172424 1.4524ZM3.53671 4.13097L4.876 9.48812H13.6831L15.0224 4.13097H3.53671ZM5.52957 12.7024C5.24541 12.7024 4.97288 12.8153 4.77195 13.0162C4.57102 13.2171 4.45814 13.4897 4.45814 13.7738C4.45814 14.058 4.57102 14.3305 4.77195 14.5314C4.97288 14.7324 5.24541 14.8453 5.52957 14.8453C5.81373 14.8453 6.08625 14.7324 6.28718 14.5314C6.48811 14.3305 6.601 14.058 6.601 13.7738C6.601 13.4897 6.48811 13.2171 6.28718 13.0162C6.08625 12.8153 5.81373 12.7024 5.52957 12.7024ZM3.38671 13.7738C3.38671 13.2055 3.61247 12.6605 4.01434 12.2586C4.4162 11.8567 4.96125 11.631 5.52957 11.631C6.09789 11.631 6.64293 11.8567 7.0448 12.2586C7.44666 12.6605 7.67242 13.2055 7.67242 13.7738C7.67242 14.3422 7.44666 14.8872 7.0448 15.2891C6.64293 15.6909 6.09789 15.9167 5.52957 15.9167C4.96125 15.9167 4.4162 15.6909 4.01434 15.2891C3.61247 14.8872 3.38671 14.3422 3.38671 13.7738ZM13.0296 12.7024C12.7454 12.7024 12.4729 12.8153 12.272 13.0162C12.071 13.2171 11.9581 13.4897 11.9581 13.7738C11.9581 14.058 12.071 14.3305 12.272 14.5314C12.4729 14.7324 12.7454 14.8453 13.0296 14.8453C13.3137 14.8453 13.5862 14.7324 13.7872 14.5314C13.9881 14.3305 14.101 14.058 14.101 13.7738C14.101 13.4897 13.9881 13.2171 13.7872 13.0162C13.5862 12.8153 13.3137 12.7024 13.0296 12.7024ZM10.8867 13.7738C10.8867 13.2055 11.1125 12.6605 11.5143 12.2586C11.9162 11.8567 12.4612 11.631 13.0296 11.631C13.5979 11.631 14.1429 11.8567 14.5448 12.2586C14.9467 12.6605 15.1724 13.2055 15.1724 13.7738C15.1724 14.3422 14.9467 14.8872 14.5448 15.2891C14.1429 15.6909 13.5979 15.9167 13.0296 15.9167C12.4612 15.9167 11.9162 15.6909 11.5143 15.2891C11.1125 14.8872 10.8867 14.3422 10.8867 13.7738Z" fill="#242424"/>
</svg>
